<?xml version="1.0" encoding="UTF-8"?><svg id="Layer_2" xmlns="http://www.w3.org/2000/svg" viewBox="0 0 883.94 352.69"><defs><style>.cls-1,.cls-2{stroke-width:0px;}.cls-2{fill:#245baa;}</style></defs><g id="Layer_1-2"><path class="cls-1" d="m5.69,53.4L16.7,1.58h10.72l-4.22,19.76h20.25L47.67,1.58h10.76l-11,51.82h-10.76l4.89-23.13h-20.25l-4.89,23.13H5.69Z"/><path class="cls-1" d="m98.61,48.8c-4.76,4.03-10.84,6.05-18.25,6.05s-12.64-2.02-15.71-6.05c-4.2-4.95-5.3-12.07-3.3-21.38,2.02-9.49,6.15-16.62,12.41-21.38,4.76-4.03,10.84-6.05,18.25-6.05s12.64,2.02,15.71,6.05c4.22,4.76,5.32,11.88,3.3,21.38-1.99,9.3-6.13,16.43-12.41,21.38Zm1.58-21.38c1.22-5.81.91-10.31-.93-13.48-1.84-3.18-4.9-4.76-9.19-4.76s-8.05,1.58-11.27,4.75c-3.22,3.16-5.46,7.66-6.7,13.5-1.24,5.84-.93,10.34.95,13.5,1.88,3.16,4.96,4.75,9.25,4.75s8.03-1.58,11.23-4.75,5.42-7.66,6.66-13.5Z"/><path class="cls-1" d="m131.83,1.58l.53,29.67-.28,8.26,3.23-8.09,12.2-29.85h11.43l-.18,29.67-.18,8.26,3.27-7.95,13.32-29.99h11l-25.59,51.82h-10.34l.18-30.3.28-10.02-3.94,10.02-12.69,30.3h-10.05l-3.69-51.82h11.5Z"/><path class="cls-1" d="m250.38,1.58l-1.97,9.18h-15.5l-9.04,42.64h-10.9l9.04-42.64h-15.57l1.97-9.18h41.98Z"/><path class="cls-1" d="m285.29,48.8c-4.76,4.03-10.84,6.05-18.25,6.05s-12.64-2.02-15.71-6.05c-4.2-4.95-5.3-12.07-3.3-21.38,2.02-9.49,6.15-16.62,12.41-21.38,4.76-4.03,10.84-6.05,18.25-6.05s12.64,2.02,15.71,6.05c4.22,4.76,5.32,11.88,3.3,21.38-1.99,9.3-6.13,16.43-12.41,21.38Zm1.58-21.38c1.22-5.81.91-10.31-.93-13.48-1.84-3.18-4.9-4.76-9.19-4.76s-8.05,1.58-11.27,4.75c-3.22,3.16-5.46,7.66-6.7,13.5-1.24,5.84-.93,10.34.95,13.5,1.88,3.16,4.96,4.75,9.25,4.75s8.03-1.58,11.23-4.75,5.42-7.66,6.66-13.5Z"/><path class="cls-1" d="m305.33,42.93h10.65l-2.21,10.48h-10.65l2.21-10.48Zm5.59-26.33h10.65l-2.21,10.48h-10.65l2.21-10.48Z"/><path class="cls-2" d="m55.54,111.37c20.37,4.62,25.53,16.7,25.53,28.11,0,17.65-13.31,30.82-40.19,30.82-28.24,0-40.87-14.12-40.87-24.71,0-5.43,3.94-9.23,9.37-9.23,12.08,0,8.96,17.65,31.5,17.65,11.54,0,17.92-6.38,17.92-12.9,0-3.94-1.9-8.28-9.51-10.18l-25.12-6.38C3.94,119.38.27,108.25.27,97.79c0-21.73,20.1-29.87,38.97-29.87,17.38,0,37.88,9.78,37.88,22.81,0,5.57-4.75,8.83-10.18,8.83-10.32,0-8.42-14.53-29.19-14.53-10.32,0-16.02,4.75-16.02,11.54s8.15,8.96,15.21,10.59l18.6,4.21Z"/><path class="cls-2" d="m96.96,79.46c0-8.96,6.11-11,12.08-11h6.52c6.92,0,10.18,2.72,12.49,10.18l19.42,62.73h.27l19.15-62.73c2.31-7.47,5.57-10.18,12.49-10.18h6.25c5.97,0,12.08,2.04,12.08,11v79.44c0,5.57-2.72,10.86-9.91,10.86s-9.91-5.3-9.91-10.86v-60.56h-.27l-20.78,64.91c-1.49,4.62-4.89,6.52-9.5,6.52s-8.01-1.9-9.51-6.52l-20.78-64.91h-.27v60.56c0,5.57-2.72,10.86-9.91,10.86s-9.91-5.3-9.91-10.86v-79.44Z"/><path class="cls-2" d="m239.81,75.25c1.9-5.02,5.43-6.79,10.86-6.79h5.3c5.02,0,9.51,1.22,11.95,8.15l26.89,74.82c.81,2.17,2.17,6.11,2.17,8.55,0,5.43-4.75,9.78-10.46,9.78-4.89,0-8.42-1.77-10.05-6.11l-5.7-16.29h-35.85l-5.84,16.29c-1.49,4.35-4.62,6.11-9.91,6.11-6.11,0-10.32-3.8-10.32-9.78,0-2.44,1.36-6.38,2.17-8.55l28.79-76.18Zm13.44,17.38h-.27l-13.17,39.24h26.07l-12.63-39.24Z"/><path class="cls-2" d="m308.52,79.59c0-6.65,4.35-11.13,11.13-11.13s11.13,4.48,11.13,11.13v69.66h37.21c6.38,0,11.54,3.26,11.54,9.37s-5.16,9.37-11.54,9.37h-46.44c-7.88,0-13.04-3.12-13.04-13.04v-75.36Z"/><path class="cls-2" d="m391.49,79.59c0-6.65,4.35-11.13,11.13-11.13s11.13,4.48,11.13,11.13v69.66h37.21c6.38,0,11.54,3.26,11.54,9.37s-5.16,9.37-11.54,9.37h-46.44c-7.88,0-13.04-3.12-13.04-13.04v-75.36Z"/><path class="cls-2" d="m539.91,88.96h-21.05c-6.38,0-11.54-3.26-11.54-9.37s5.16-9.37,11.54-9.37h64.36c6.38,0,11.54,3.26,11.54,9.37s-5.16,9.37-11.54,9.37h-21.05v69.66c0,6.65-4.35,11.13-11.13,11.13s-11.13-4.48-11.13-11.13v-69.66Z"/><path class="cls-2" d="m621.12,75.25c1.9-5.02,5.43-6.79,10.86-6.79h5.3c5.02,0,9.5,1.22,11.95,8.15l26.89,74.82c.81,2.17,2.17,6.11,2.17,8.55,0,5.43-4.75,9.78-10.46,9.78-4.89,0-8.42-1.77-10.05-6.11l-5.7-16.29h-35.85l-5.84,16.29c-1.49,4.35-4.62,6.11-9.91,6.11-6.11,0-10.32-3.8-10.32-9.78,0-2.44,1.36-6.38,2.17-8.55l28.79-76.18Zm13.44,17.38h-.27l-13.17,39.24h26.07l-12.63-39.24Z"/><path class="cls-2" d="m689.83,79.59c0-6.65,4.34-11.13,11.13-11.13s11.13,4.48,11.13,11.13v69.66h37.21c6.38,0,11.54,3.26,11.54,9.37s-5.16,9.37-11.54,9.37h-46.44c-7.88,0-13.04-3.12-13.04-13.04v-75.36Z"/><path class="cls-2" d="m772.8,79.59c0-6.65,4.34-11.13,11.13-11.13s11.13,4.48,11.13,11.13v32.32l35.03-38.56c2.58-2.72,4.89-4.89,8.83-4.89,5.3,0,10.59,3.26,10.59,8.96,0,3.39-1.77,5.7-3.67,7.6l-22.81,24.04,27.02,41.14c2.04,3.12,4.21,5.97,4.21,8.83,0,8.28-6.11,10.73-11.41,10.73-4.48,0-6.93-1.09-9.91-5.84l-25.66-39.65-12.22,12.22v22.13c0,6.65-4.34,11.13-11.13,11.13s-11.13-4.48-11.13-11.13v-79.03Z"/><path class="cls-2" d="m126.07,190.8c0-3.53,2.3-5.9,5.9-5.9s5.9,2.38,5.9,5.9v41.91c0,3.53-2.3,5.9-5.9,5.9s-5.9-2.38-5.9-5.9v-41.91Z"/><path class="cls-2" d="m148.61,191.81c0-4.9,2.38-6.91,7.42-6.91,2.45,0,4.61.94,5.9,3.1l20.67,33.34h.14v-30.75c0-3.82,2.16-5.69,5.69-5.69s5.69,1.87,5.69,5.69v40.68c0,4.68-2.02,7.34-6.98,7.34-3.74,0-4.97-.79-6.48-3.17l-20.52-32.4h-.14v29.88c0,3.82-2.16,5.69-5.69,5.69s-5.69-1.87-5.69-5.69v-41.12Z"/><path class="cls-2" d="m226.87,190.8c0-3.53,2.3-5.9,5.9-5.9s5.9,2.38,5.9,5.9v36.94h19.73c3.38,0,6.12,1.73,6.12,4.97s-2.74,4.97-6.12,4.97h-24.63c-4.18,0-6.91-1.66-6.91-6.91v-39.96Z"/><path class="cls-2" d="m270.87,190.8c0-3.53,2.3-5.9,5.9-5.9s5.9,2.38,5.9,5.9v41.91c0,3.53-2.3,5.9-5.9,5.9s-5.9-2.38-5.9-5.9v-41.91Z"/><path class="cls-2" d="m293.4,191.81c0-4.9,2.38-6.91,7.42-6.91,2.45,0,4.61.94,5.9,3.1l20.67,33.34h.14v-30.75c0-3.82,2.16-5.69,5.69-5.69s5.69,1.87,5.69,5.69v40.68c0,4.68-2.02,7.34-6.98,7.34-3.74,0-4.97-.79-6.48-3.17l-20.52-32.4h-.14v29.88c0,3.82-2.16,5.69-5.69,5.69s-5.69-1.87-5.69-5.69v-41.12Z"/><path class="cls-2" d="m349.92,192.74c0-5.26,2.74-6.91,6.91-6.91h27.72c3.46,0,5.98,1.01,5.98,4.75s-2.52,4.75-5.98,4.75h-22.83v11.23h20.02c3.1,0,5.54.86,5.54,4.54s-2.45,4.54-5.54,4.54h-20.02v12.53h23.4c3.46,0,5.98,1.01,5.98,4.75s-2.52,4.75-5.98,4.75h-28.3c-4.18,0-6.91-1.66-6.91-6.91v-38.02Z"/><path class="cls-2" d="m421.27,192.74c0-5.26,2.74-6.91,6.91-6.91h25.99c3.46,0,5.98,1.01,5.98,4.75s-2.52,4.75-5.98,4.75h-21.1v12.1h17.86c3.1,0,5.54.86,5.54,4.54s-2.45,4.54-5.54,4.54h-17.86v16.2c0,3.53-2.3,5.9-5.9,5.9s-5.9-2.38-5.9-5.9v-39.96Z"/><path class="cls-2" d="m490.25,184.61c16.99,0,26.21,11.3,26.21,26.5s-8.5,27.79-26.21,27.79-26.21-12.1-26.21-27.79,9.22-26.5,26.21-26.5Zm0,44.79c10.73,0,14.4-8.35,14.4-18.29s-4.75-16.99-14.4-16.99-14.4,7.06-14.4,16.99,3.31,18.29,14.4,18.29Z"/><path class="cls-2" d="m525.1,192.74c0-5.26,2.74-6.91,6.91-6.91h19.66c14.04,0,17.79,7.71,17.79,14.4,0,5.62-3.31,11.16-8.93,12.46v.14c6.05.86,7.13,5.26,7.13,10.51,0,5.98,1.58,8.21,1.58,10.66,0,2.74-2.81,4.61-5.54,4.61-6.48,0-6.99-6.26-6.99-8.35,0-9.07-1.66-12.75-8.14-12.75h-11.67v15.19c0,3.53-2.3,5.9-5.9,5.9s-5.9-2.38-5.9-5.9v-39.96Zm11.81,16.13h11.81c4.46,0,8.93-1.15,8.93-6.98s-3.38-6.98-8.57-6.98h-12.17v13.97Z"/><path class="cls-2" d="m613.15,195.77h-11.16c-3.38,0-6.12-1.73-6.12-4.97s2.74-4.97,6.12-4.97h34.13c3.38,0,6.12,1.73,6.12,4.97s-2.74,4.97-6.12,4.97h-11.16v36.94c0,3.53-2.3,5.9-5.9,5.9s-5.91-2.38-5.91-5.9v-36.94Z"/><path class="cls-2" d="m648.58,190.8c0-3.53,2.3-5.9,5.9-5.9s5.9,2.38,5.9,5.9v14.69h21.46v-14.69c0-3.53,2.3-5.9,5.91-5.9s5.9,2.38,5.9,5.9v41.91c0,3.53-2.3,5.9-5.9,5.9s-5.91-2.38-5.91-5.9v-17.28h-21.46v17.28c0,3.53-2.3,5.9-5.9,5.9s-5.9-2.38-5.9-5.9v-41.91Z"/><path class="cls-2" d="m704.88,192.74c0-5.26,2.74-6.91,6.91-6.91h27.72c3.46,0,5.98,1.01,5.98,4.75s-2.52,4.75-5.98,4.75h-22.83v11.23h20.02c3.1,0,5.54.86,5.54,4.54s-2.45,4.54-5.54,4.54h-20.02v12.53h23.4c3.46,0,5.98,1.01,5.98,4.75s-2.52,4.75-5.98,4.75h-28.3c-4.18,0-6.91-1.66-6.91-6.91v-38.02Z"/><path class="cls-2" d="m7.13,261.85c0-8.96,6.11-11,12.08-11h6.52c6.92,0,10.18,2.72,12.49,10.18l19.42,62.73h.27l19.15-62.73c2.31-7.47,5.57-10.18,12.49-10.18h6.25c5.97,0,12.08,2.04,12.08,11v79.44c0,5.57-2.72,10.86-9.91,10.86s-9.91-5.3-9.91-10.86v-60.56h-.27l-20.78,64.91c-1.49,4.62-4.89,6.52-9.5,6.52s-8.01-1.9-9.51-6.52l-20.78-64.91h-.27v60.56c0,5.57-2.72,10.86-9.91,10.86s-9.91-5.3-9.91-10.86v-79.44Z"/><path class="cls-2" d="m128.66,265.65c0-9.91,5.16-13.04,13.04-13.04h52.28c6.52,0,11.27,1.9,11.27,8.96s-4.75,8.96-11.27,8.96h-43.04v21.18h37.75c5.84,0,10.46,1.63,10.46,8.55s-4.62,8.55-10.46,8.55h-37.75v23.63h44.13c6.52,0,11.27,1.9,11.27,8.96s-4.75,8.96-11.27,8.96h-53.36c-7.88,0-13.04-3.12-13.04-13.04v-71.7Z"/><path class="cls-2" d="m220.73,263.88c0-9.23,4.48-13.04,13.99-13.04,4.62,0,8.69,1.77,11.13,5.84l38.97,62.87h.27v-57.98c0-7.2,4.07-10.73,10.73-10.73s10.73,3.53,10.73,10.73v76.72c0,8.83-3.8,13.85-13.17,13.85-7.06,0-9.37-1.49-12.22-5.97l-38.7-61.1h-.27v56.35c0,7.2-4.07,10.73-10.73,10.73s-10.73-3.53-10.73-10.73v-77.54Z"/><path class="cls-2" d="m377.98,293.76c20.37,4.62,25.53,16.7,25.53,28.11,0,17.65-13.31,30.82-40.19,30.82-28.24,0-40.87-14.12-40.87-24.71,0-5.43,3.94-9.23,9.37-9.23,12.08,0,8.96,17.65,31.5,17.65,11.54,0,17.92-6.38,17.92-12.9,0-3.94-1.9-8.28-9.51-10.18l-25.12-6.38c-20.23-5.16-23.9-16.29-23.9-26.75,0-21.73,20.1-29.87,38.97-29.87,17.38,0,37.88,9.78,37.88,22.81,0,5.57-4.75,8.83-10.18,8.83-10.32,0-8.42-14.53-29.19-14.53-10.32,0-16.02,4.75-16.02,11.54s8.15,8.96,15.21,10.59l18.6,4.21Z"/><path class="cls-2" d="m461.36,265.65c0-9.91,5.16-13.04,13.04-13.04h37.07c26.48,0,33.54,14.53,33.54,27.16,0,10.59-6.25,21.05-16.84,23.49v.27c11.41,1.63,13.44,9.91,13.44,19.82,0,11.27,2.99,15.48,2.99,20.1,0,5.16-5.3,8.69-10.46,8.69-12.22,0-13.17-11.81-13.17-15.75,0-17.11-3.12-24.03-15.34-24.03h-22v28.65c0,6.65-4.34,11.13-11.13,11.13s-11.13-4.48-11.13-11.13v-75.36Zm22.27,30.42h22.27c8.42,0,16.84-2.17,16.84-13.17s-6.38-13.17-16.16-13.17h-22.95v26.34Z"/><path class="cls-2" d="m607.06,250.31c32.05,0,49.43,21.32,49.43,49.97s-16.02,52.41-49.43,52.41-49.43-22.81-49.43-52.41,17.38-49.97,49.43-49.97Zm0,84.46c20.23,0,27.16-15.75,27.16-34.49s-8.96-32.05-27.16-32.05-27.16,13.31-27.16,32.05,6.25,34.49,27.16,34.49Z"/><path class="cls-2" d="m717.87,250.31c32.05,0,49.43,21.32,49.43,49.97s-16.02,52.41-49.43,52.41-49.43-22.81-49.43-52.41,17.38-49.97,49.43-49.97Zm0,84.46c20.23,0,27.16-15.75,27.16-34.49s-8.96-32.05-27.16-32.05-27.16,13.31-27.16,32.05,6.25,34.49,27.16,34.49Z"/><path class="cls-2" d="m783.19,261.85c0-8.96,6.11-11,12.08-11h6.52c6.92,0,10.18,2.72,12.49,10.18l19.42,62.73h.27l19.15-62.73c2.31-7.47,5.57-10.18,12.49-10.18h6.25c5.97,0,12.08,2.04,12.08,11v79.44c0,5.57-2.72,10.86-9.91,10.86s-9.91-5.3-9.91-10.86v-60.56h-.27l-20.78,64.91c-1.49,4.62-4.89,6.52-9.5,6.52s-8.01-1.9-9.51-6.52l-20.78-64.91h-.27v60.56c0,5.57-2.72,10.86-9.91,10.86s-9.91-5.3-9.91-10.86v-79.44Z"/></g></svg>