<?xml version="1.0" encoding="UTF-8"?><svg id="Layer_2" xmlns="http://www.w3.org/2000/svg" viewBox="0 0 319.42 105.32"><defs><style>.cls-1{fill:#245baa;}.cls-1,.cls-2{stroke-width:0px;}.cls-2{fill:#fff;}</style></defs><g id="Layer_1-2"><rect class="cls-1" width="319.42" height="105.32" rx="10.95" ry="10.95"/><path class="cls-2" d="m41.39,71.18c6.4,1.45,8.03,5.25,8.03,8.84,0,5.55-4.18,9.69-12.64,9.69-8.88,0-12.85-4.44-12.85-7.77,0-1.71,1.24-2.9,2.95-2.9,3.8,0,2.82,5.55,9.91,5.55,3.63,0,5.64-2.01,5.64-4.06,0-1.24-.6-2.6-2.99-3.2l-7.9-2.01c-6.36-1.62-7.51-5.12-7.51-8.41,0-6.83,6.32-9.39,12.25-9.39,5.46,0,11.91,3.07,11.91,7.17,0,1.75-1.49,2.78-3.2,2.78-3.24,0-2.65-4.57-9.18-4.57-3.24,0-5.04,1.49-5.04,3.63s2.56,2.82,4.78,3.33l5.85,1.32Z"/><path class="cls-2" d="m54.41,61.15c0-2.82,1.92-3.46,3.8-3.46h2.05c2.18,0,3.2.85,3.93,3.2l6.11,19.72h.09l6.02-19.72c.73-2.35,1.75-3.2,3.93-3.2h1.96c1.88,0,3.8.64,3.8,3.46v24.98c0,1.75-.85,3.42-3.12,3.42s-3.12-1.67-3.12-3.42v-19.04h-.09l-6.53,20.41c-.47,1.45-1.54,2.05-2.99,2.05s-2.52-.6-2.99-2.05l-6.53-20.41h-.09v19.04c0,1.75-.85,3.42-3.12,3.42s-3.12-1.67-3.12-3.42v-24.98Z"/><path class="cls-2" d="m99.32,59.82c.6-1.58,1.71-2.13,3.42-2.13h1.67c1.58,0,2.99.38,3.76,2.56l8.45,23.52c.26.68.68,1.92.68,2.69,0,1.71-1.49,3.07-3.29,3.07-1.54,0-2.65-.56-3.16-1.92l-1.79-5.12h-11.27l-1.84,5.12c-.47,1.37-1.45,1.92-3.12,1.92-1.92,0-3.24-1.2-3.24-3.07,0-.77.43-2.01.68-2.69l9.05-23.95Zm4.23,5.46h-.09l-4.14,12.34h8.2l-3.97-12.34Z"/><path class="cls-2" d="m120.92,61.19c0-2.09,1.37-3.5,3.5-3.5s3.5,1.41,3.5,3.5v21.9h11.7c2.01,0,3.63,1.02,3.63,2.95s-1.62,2.95-3.63,2.95h-14.6c-2.48,0-4.1-.98-4.1-4.1v-23.7Z"/><path class="cls-2" d="m147.01,61.19c0-2.09,1.37-3.5,3.5-3.5s3.5,1.41,3.5,3.5v21.9h11.7c2.01,0,3.63,1.02,3.63,2.95s-1.62,2.95-3.63,2.95h-14.6c-2.48,0-4.1-.98-4.1-4.1v-23.7Z"/><path class="cls-2" d="m193.67,64.14h-6.62c-2.01,0-3.63-1.02-3.63-2.95s1.62-2.95,3.63-2.95h20.24c2.01,0,3.63,1.02,3.63,2.95s-1.62,2.95-3.63,2.95h-6.62v21.9c0,2.09-1.37,3.5-3.5,3.5s-3.5-1.41-3.5-3.5v-21.9Z"/><path class="cls-2" d="m219.21,59.82c.6-1.58,1.71-2.13,3.42-2.13h1.67c1.58,0,2.99.38,3.76,2.56l8.45,23.52c.26.68.68,1.92.68,2.69,0,1.71-1.49,3.07-3.29,3.07-1.54,0-2.65-.56-3.16-1.92l-1.79-5.12h-11.27l-1.84,5.12c-.47,1.37-1.45,1.92-3.12,1.92-1.92,0-3.24-1.2-3.24-3.07,0-.77.43-2.01.68-2.69l9.05-23.95Zm4.23,5.46h-.09l-4.14,12.34h8.2l-3.97-12.34Z"/><path class="cls-2" d="m240.81,61.19c0-2.09,1.37-3.5,3.5-3.5s3.5,1.41,3.5,3.5v21.9h11.7c2.01,0,3.63,1.02,3.63,2.95s-1.62,2.95-3.63,2.95h-14.6c-2.48,0-4.1-.98-4.1-4.1v-23.7Z"/><path class="cls-2" d="m266.89,61.19c0-2.09,1.37-3.5,3.5-3.5s3.5,1.41,3.5,3.5v10.16l11.02-12.12c.81-.85,1.54-1.54,2.77-1.54,1.67,0,3.33,1.02,3.33,2.82,0,1.07-.55,1.79-1.15,2.39l-7.17,7.56,8.5,12.94c.64.98,1.32,1.88,1.32,2.77,0,2.6-1.92,3.37-3.59,3.37-1.41,0-2.18-.34-3.12-1.84l-8.07-12.47-3.84,3.84v6.96c0,2.09-1.37,3.5-3.5,3.5s-3.5-1.41-3.5-3.5v-24.85Z"/><path class="cls-2" d="m26.16,22.88c0-2.72,1.86-3.34,3.67-3.34h1.98c2.1,0,3.09.83,3.8,3.09l5.9,19.06h.08l5.82-19.06c.7-2.27,1.69-3.09,3.8-3.09h1.9c1.82,0,3.67.62,3.67,3.34v24.14c0,1.69-.83,3.3-3.01,3.3s-3.01-1.61-3.01-3.3v-18.4h-.08l-6.31,19.72c-.45,1.4-1.49,1.98-2.89,1.98s-2.43-.58-2.89-1.98l-6.31-19.72h-.08v18.4c0,1.69-.83,3.3-3.01,3.3s-3.01-1.61-3.01-3.3v-24.14Z"/><path class="cls-2" d="m63.09,24.03c0-3.01,1.57-3.96,3.96-3.96h15.89c1.98,0,3.42.58,3.42,2.72s-1.44,2.72-3.42,2.72h-13.08v6.44h11.47c1.77,0,3.18.5,3.18,2.6s-1.4,2.6-3.18,2.6h-11.47v7.18h13.41c1.98,0,3.42.58,3.42,2.72s-1.44,2.72-3.42,2.72h-16.22c-2.39,0-3.96-.95-3.96-3.96v-21.79Z"/><path class="cls-2" d="m91.06,23.5c0-2.81,1.36-3.96,4.25-3.96,1.4,0,2.64.54,3.38,1.77l11.84,19.1h.08v-17.62c0-2.19,1.24-3.26,3.26-3.26s3.26,1.07,3.26,3.26v23.31c0,2.68-1.16,4.21-4,4.21-2.15,0-2.85-.45-3.71-1.82l-11.76-18.57h-.08v17.12c0,2.19-1.24,3.26-3.26,3.26s-3.26-1.07-3.26-3.26v-23.56Z"/><path class="cls-2" d="m138.84,32.57c6.19,1.4,7.76,5.07,7.76,8.54,0,5.36-4.04,9.37-12.21,9.37-8.58,0-12.42-4.29-12.42-7.51,0-1.65,1.2-2.81,2.85-2.81,3.67,0,2.72,5.36,9.57,5.36,3.51,0,5.45-1.94,5.45-3.92,0-1.2-.58-2.52-2.89-3.09l-7.63-1.94c-6.15-1.57-7.26-4.95-7.26-8.13,0-6.6,6.11-9.08,11.84-9.08,5.28,0,11.51,2.97,11.51,6.93,0,1.69-1.44,2.68-3.09,2.68-3.14,0-2.56-4.42-8.87-4.42-3.14,0-4.87,1.44-4.87,3.51s2.48,2.72,4.62,3.22l5.65,1.28Z"/><path class="cls-2" d="m164.18,24.03c0-3.01,1.57-3.96,3.96-3.96h11.26c8.05,0,10.19,4.42,10.19,8.25,0,3.22-1.9,6.4-5.12,7.14v.08c3.47.5,4.08,3.01,4.08,6.02,0,3.42.91,4.7.91,6.11,0,1.57-1.61,2.64-3.18,2.64-3.71,0-4-3.59-4-4.79,0-5.2-.95-7.3-4.66-7.3h-6.68v8.71c0,2.02-1.32,3.38-3.38,3.38s-3.38-1.36-3.38-3.38v-22.9Zm6.77,9.24h6.77c2.56,0,5.12-.66,5.12-4s-1.94-4-4.91-4h-6.97v8Z"/><path class="cls-2" d="m208.45,19.37c9.74,0,15.02,6.48,15.02,15.18s-4.87,15.93-15.02,15.93-15.02-6.93-15.02-15.93,5.28-15.18,15.02-15.18Zm0,25.66c6.15,0,8.25-4.79,8.25-10.48s-2.72-9.74-8.25-9.74-8.25,4.04-8.25,9.74,1.9,10.48,8.25,10.48Z"/><path class="cls-2" d="m242.12,19.37c9.74,0,15.02,6.48,15.02,15.18s-4.87,15.93-15.02,15.93-15.02-6.93-15.02-15.93,5.28-15.18,15.02-15.18Zm0,25.66c6.15,0,8.25-4.79,8.25-10.48s-2.72-9.74-8.25-9.74-8.25,4.04-8.25,9.74,1.9,10.48,8.25,10.48Z"/><path class="cls-2" d="m261.97,22.88c0-2.72,1.86-3.34,3.67-3.34h1.98c2.1,0,3.09.83,3.8,3.09l5.9,19.06h.08l5.82-19.06c.7-2.27,1.69-3.09,3.8-3.09h1.9c1.82,0,3.67.62,3.67,3.34v24.14c0,1.69-.83,3.3-3.01,3.3s-3.01-1.61-3.01-3.3v-18.4h-.08l-6.31,19.72c-.45,1.4-1.49,1.98-2.89,1.98s-2.43-.58-2.89-1.98l-6.31-19.72h-.08v18.4c0,1.69-.83,3.3-3.01,3.3s-3.01-1.61-3.01-3.3v-24.14Z"/></g></svg>