<?xml version="1.0" encoding="UTF-8"?><svg id="Layer_2" xmlns="http://www.w3.org/2000/svg" viewBox="0 0 99.11 246.39"><defs><style>.cls-1{fill:#fff;stroke-width:0px;}</style></defs><g id="Layer_1-2"><path class="cls-1" d="m0,0v246.39h99.11V0H0Zm43.07,11.37c.82-.28,1.63-.59,2.47-.79,2.47-.57,4.41-.61,7.38-.11,5.84,1.66,10.49,4.8,13.21,10.44,4.63,9.62.38,20.98-9.51,25.32-9.49,4.17-20.97-.58-24.71-10.23-3.91-10.07,1.1-21.12,11.16-24.62Zm49.61,125.84c-.01,4.95-3.47,8.3-8.21,8.3-4.85,0-8.15-3.37-8.16-8.51-.04-16.2-.02-32.4-.02-48.59,0-.65,0-1.31-.04-1.96-.06-.98-.76-1.11-1.55-1.1-.77,0-1.52.07-1.6,1.05-.07.79-.07,1.6-.07,2.39,0,22.88,0,45.76,0,68.64s0,45.18-.01,67.77c0,1.3-.05,2.62-.26,3.9-.94,5.86-5.09,9.31-11.04,9.25-5.71-.06-9.9-3.71-10.73-9.42-.19-1.29-.26-2.6-.26-3.9-.01-25.5-.01-50.99-.01-76.49,0-.8,0-1.6-.06-2.39-.06-.81-.6-1.09-1.34-1.1-.81-.02-1.47.19-1.54,1.14-.06.8-.06,1.6-.06,2.39,0,25.42,0,50.85-.01,76.27,0,1.45-.09,2.91-.29,4.34-.82,5.69-5.33,9.3-11.38,9.17-5.63-.13-9.77-4.05-10.28-9.8-.15-1.66-.25-3.33-.25-5-.01-44.82-.01-89.63-.01-134.45,0-.8-.01-1.6-.04-2.4-.04-1.18-.81-1.38-1.79-1.37-.98,0-1.5.4-1.49,1.42,0,.65,0,1.31-.01,1.96,0,16.13.02,32.25-.03,48.38-.02,5.29-3.81,8.76-8.95,8.39-4.14-.3-7.43-3.54-7.44-7.7-.05-19.9-.2-39.81.06-59.71.15-11.61,10.78-21.87,22.64-22.08,13.72-.24,27.46-.25,41.18,0,12.32.23,22.88,10.87,23.02,23.25.21,19.32.1,38.64.05,57.96Z"/></g></svg>