<?xml version="1.0" encoding="UTF-8"?><svg id="Layer_2" xmlns="http://www.w3.org/2000/svg" viewBox="0 0 168.37 258.82"><defs><style>.cls-1{fill:#245baa;}.cls-1,.cls-2{stroke-width:0px;}.cls-2{fill:#fff;}</style></defs><g id="Layer_1-2"><rect class="cls-1" width="168.37" height="258.82" rx="10.95" ry="10.95"/><path class="cls-2" d="m86.71,25.6c3.96,1.13,7.12,3.26,8.97,7.09,3.14,6.53.26,14.24-6.45,17.19-6.44,2.83-14.23-.4-16.78-6.95-2.65-6.84.75-14.34,7.58-16.72.56-.19,1.1-.41,1.66-.61,1.68,0,3.35,0,5.03,0Z"/><path class="cls-2" d="m100.36,125.38c0,15.34,0,30.68,0,46.01,0,.88-.03,1.78-.17,2.65-.64,3.98-3.45,6.32-7.5,6.28-3.88-.04-6.72-2.52-7.29-6.39-.13-.87-.18-1.77-.18-2.65-.01-17.31,0-34.62,0-51.93,0-.54,0-1.09-.04-1.63-.04-.55-.41-.74-.91-.75-.55-.01-1,.13-1.05.77-.04.54-.04,1.08-.04,1.63,0,17.26,0,34.52,0,51.78,0,.98-.06,1.97-.2,2.94-.55,3.86-3.62,6.31-7.73,6.22-3.82-.09-6.63-2.75-6.98-6.65-.1-1.13-.17-2.26-.17-3.39,0-30.43,0-60.86,0-91.29,0-.54,0-1.08-.02-1.63-.02-.8-.55-.93-1.22-.93-.67,0-1.02.27-1.01.96,0,.44,0,.89,0,1.33,0,10.95.01,21.9-.02,32.85-.01,3.59-2.59,5.95-6.08,5.69-2.81-.21-5.05-2.4-5.05-5.23-.04-13.51-.14-27.03.04-40.54.1-7.88,7.32-14.85,15.37-14.99,9.32-.17,18.64-.17,27.96,0,8.37.15,15.54,7.38,15.63,15.79.15,13.12.07,26.24.03,39.36,0,3.36-2.36,5.64-5.58,5.63-3.29,0-5.54-2.29-5.54-5.78-.02-11-.01-22-.01-32.99,0-.44,0-.89-.03-1.33-.04-.67-.52-.75-1.05-.75-.52,0-1.03.05-1.09.71-.05.54-.05,1.08-.05,1.62,0,15.54,0,31.07,0,46.61Z"/><path class="cls-2" d="m47.6,226.23c4.48,1.02,5.62,3.67,5.62,6.18,0,3.88-2.93,6.78-8.84,6.78-6.21,0-8.99-3.11-8.99-5.44,0-1.19.87-2.03,2.06-2.03,2.66,0,1.97,3.88,6.93,3.88,2.54,0,3.94-1.4,3.94-2.84,0-.87-.42-1.82-2.09-2.24l-5.53-1.4c-4.45-1.14-5.26-3.58-5.26-5.89,0-4.78,4.42-6.57,8.57-6.57,3.82,0,8.34,2.15,8.34,5.02,0,1.23-1.05,1.94-2.24,1.94-2.27,0-1.85-3.2-6.42-3.2-2.27,0-3.53,1.05-3.53,2.54s1.79,1.97,3.35,2.33l4.09.93Z"/><path class="cls-2" d="m62.05,221.3h-4.63c-1.4,0-2.54-.72-2.54-2.06s1.14-2.06,2.54-2.06h14.16c1.4,0,2.54.72,2.54,2.06s-1.14,2.06-2.54,2.06h-4.63v15.33c0,1.46-.96,2.45-2.45,2.45s-2.45-.99-2.45-2.45v-15.33Z"/><path class="cls-2" d="m79.92,218.28c.42-1.11,1.19-1.49,2.39-1.49h1.17c1.11,0,2.09.27,2.63,1.79l5.92,16.46c.18.48.48,1.34.48,1.88,0,1.19-1.05,2.15-2.3,2.15-1.08,0-1.85-.39-2.21-1.34l-1.25-3.58h-7.89l-1.28,3.58c-.33.96-1.02,1.34-2.18,1.34-1.34,0-2.27-.84-2.27-2.15,0-.54.3-1.4.48-1.88l6.33-16.76Zm2.96,3.82h-.06l-2.9,8.63h5.74l-2.78-8.63Z"/><path class="cls-2" d="m95.03,220.04c0-2.18,1.14-2.87,2.87-2.87h8.16c5.83,0,7.38,3.2,7.38,5.98,0,2.33-1.37,4.63-3.71,5.17v.06c2.51.36,2.96,2.18,2.96,4.36,0,2.48.66,3.41.66,4.42,0,1.14-1.17,1.91-2.3,1.91-2.69,0-2.9-2.6-2.9-3.47,0-3.76-.69-5.29-3.38-5.29h-4.84v6.3c0,1.46-.96,2.45-2.45,2.45s-2.45-.99-2.45-2.45v-16.58Zm4.9,6.69h4.9c1.85,0,3.7-.48,3.7-2.9s-1.4-2.9-3.55-2.9h-5.05v5.8Z"/><path class="cls-2" d="m121.88,221.3h-4.63c-1.4,0-2.54-.72-2.54-2.06s1.14-2.06,2.54-2.06h14.16c1.4,0,2.54.72,2.54,2.06s-1.13,2.06-2.54,2.06h-4.63v15.33c0,1.46-.96,2.45-2.45,2.45s-2.45-.99-2.45-2.45v-15.33Z"/><rect class="cls-2" x="17.24" y="202.4" width="130.88" height="2"/></g></svg>